<?xml version="1.0" encoding="UTF-8"?>
<svg id="a" data-name="Слой 1" xmlns="http://www.w3.org/2000/svg" viewBox="0 0 780.38 455.66">
  <g>
    <path d="m769.66,266.44c-6.86-16.22-16.68-30.78-29.17-43.28-12.49-12.49-27.05-22.31-43.28-29.17-10.71-4.53-21.83-7.64-33.24-9.3-3.07-30.19-16.31-58.19-38.07-79.94-24.99-24.99-58.22-38.75-93.56-38.75-27.96,0-54.68,8.78-76.77,24.53-11.24-19.37-26.05-36.68-43.69-50.8-15.74-12.6-33.32-22.42-52.25-29.18-19.59-7-40.14-10.55-61.08-10.55-24.48,0-48.25,4.8-70.66,14.28-21.62,9.14-41.02,22.22-57.67,38.88-16.65,16.65-29.73,36.06-38.88,57.67-9.48,22.4-14.28,46.18-14.28,70.66,0,1.04,0,2.08.03,3.12-11.66,1.63-23.02,4.78-33.95,9.4-16.22,6.86-30.78,16.68-43.28,29.17-12.49,12.49-22.31,27.05-29.17,43.28-7.11,16.82-10.72,34.66-10.72,53.03s3.61,36.21,10.72,53.03c6.86,16.22,16.68,30.78,29.17,43.28,12.49,12.49,27.05,22.31,43.28,29.17,16.82,7.11,34.66,10.72,53.03,10.72h508c18.37,0,36.21-3.61,53.03-10.72,16.22-6.86,30.78-16.68,43.28-29.17,12.49-12.49,22.31-27.05,29.17-43.28,7.11-16.82,10.72-34.66,10.72-53.03s-3.61-36.21-10.72-53.03Zm-34.28,53.03c0,2.36-.09,4.7-.27,7.02-.23,3.09-.62,6.13-1.16,9.13-.27,1.5-.57,2.98-.91,4.45-1.36,5.88-3.29,11.55-5.72,16.93-.61,1.35-1.25,2.68-1.92,3.99-4.27,8.33-9.8,15.89-16.31,22.49-22.77-63.21-83.27-108.41-154.33-108.41-80.89,0-148.09,58.56-161.54,135.6H136.19c-8.66,0-17.03-1.21-24.96-3.46-1.44-.41-2.87-.85-4.28-1.33-.71-.24-1.41-.49-2.11-.74-3.14-1.15-6.2-2.47-9.16-3.95-2.31-1.15-4.57-2.39-6.77-3.72-.63-.38-1.25-.77-1.87-1.16-.81-.52-1.6-1.05-2.39-1.59-2.11-1.45-4.16-2.98-6.13-4.6-.74-.6-1.47-1.22-2.19-1.84-3.24-2.82-6.28-5.87-9.09-9.11-.48-.55-.95-1.11-1.41-1.67-13.01-15.76-20.82-35.97-20.82-58.01s7.81-42.24,20.82-58.01c.46-.56.94-1.12,1.41-1.67,2.81-3.25,5.85-6.29,9.09-9.11.72-.63,1.45-1.24,2.19-1.84,2.72-2.22,5.56-4.29,8.52-6.19.62-.4,1.24-.78,1.87-1.16,5.01-3.05,10.34-5.62,15.93-7.67.7-.26,1.4-.5,2.11-.74,1.41-.48,2.84-.92,4.28-1.33,7.93-2.25,16.31-3.46,24.96-3.46h34.13c-1.33-3.65-2.51-7.37-3.53-11.16-1.02-3.79-1.88-7.64-2.58-11.55-1.39-7.82-2.12-15.87-2.12-24.09h0c0-10.6,1.21-20.92,3.49-30.82,1.52-6.6,3.53-13.02,5.97-19.22,1.22-3.1,2.55-6.14,3.99-9.13,5.75-11.93,13.19-22.9,22-32.6,1.47-1.62,2.98-3.2,4.52-4.74s3.12-3.05,4.74-4.52c2.42-2.2,4.93-4.32,7.51-6.35,1.72-1.35,3.47-2.66,5.25-3.93,1.78-1.27,3.6-2.5,5.45-3.68.92-.59,1.85-1.17,2.79-1.74,20.64-12.54,44.86-19.76,70.77-19.76,21.16,0,41.19,4.81,59.06,13.4.85.41,1.7.83,2.54,1.25,2.59,1.31,5.14,2.71,7.63,4.18h0c-34.42,7.84-59.98,38.96-59.19,75.93.86,40.37,33.69,73.39,74.05,74.48,37.58,1.02,69.22-25.2,76.64-60.35.76-3.58,2.36-6.94,4.64-9.81.63-.79,1.27-1.57,1.92-2.34.16-.19.32-.37.48-.56,1.05-1.21,2.13-2.4,3.24-3.55.65-.67,1.3-1.33,1.96-1.97.04-.04.07-.07.11-.1,1.75-1.69,3.57-3.31,5.46-4.86.97-.79,1.96-1.56,2.96-2.31,1.01-.75,2.03-1.48,3.07-2.2.48-.33.96-.65,1.44-.97.92-.61,1.86-1.19,2.81-1.76.62-.38,1.25-.74,1.89-1.11,1.58-.9,3.18-1.74,4.82-2.54.85-.41,1.7-.81,2.56-1.2,1.48-.67,2.99-1.29,4.51-1.87,3.65-1.4,7.42-2.56,11.29-3.46.4-.09.8-.18,1.2-.27,3.37-.74,6.82-1.27,10.32-1.61-26.94,11.93-45.68,39-45.38,70.43.4,40.91,33.64,74.55,74.54,75.41,17.37.37,33.43-5.09,46.41-14.54s27.72-14.44,43.35-14.44h1.3c21.25,0,40.8,7.27,56.3,19.45,1.72,1.35,3.4,2.77,5.01,4.24,3.78,3.43,7.27,7.18,10.43,11.2.9,1.15,1.78,2.32,2.63,3.51.42.6.84,1.2,1.25,1.8,1.23,1.82,2.39,3.69,3.49,5.59,2.2,3.82,4.12,7.81,5.76,11.95,4.08,10.35,6.33,21.63,6.33,33.44h0Z" fill="#fff"/>
    <path d="m238.03,394.66h136.07c2.34-9.53,5.43-18.88,9.29-28,9.37-22.15,22.78-42.04,39.85-59.12s36.96-30.48,59.12-39.85c1.2-.51,2.4-.99,3.61-1.47-27.87-21.89-63.01-34.94-101.2-34.94-83.66,0-152.65,57.95-162.71,145.63-1.09,9.48,6.43,17.75,15.97,17.75Z" fill="#fff"/>
  </g>
  <path d="m422.29,132.16l-58.91-34.01c-4.15-2.4-9.35.6-9.35,5.4v68.02c0,4.8,5.19,7.8,9.35,5.4l58.91-34.01c4.15-2.4,4.15-8.4,0-10.79Z" fill="#ff0064"/>
</svg>