<svg xmlns="http://www.w3.org/2000/svg" width="96" height="96" viewBox="0 0 24 24"><path fill="white" d="M15.236 3.775a8 8 0 0 0-.535.004c-.576 0-1.573.103-2.201.234c-1.834.367-4.348 1.65-5.5 2.855c-1.362 1.415-1.362 1.755 0 .917c1.074-.708 4.663-2.227 5.187-2.227c.157 0 .287.106.287.264c0 .13.524-.132 1.153-.604c.628-.445 1.363-.969 1.625-1.152c.334-.197.372-.275-.016-.291m1.262 2.449c-.475.01-.894.041-1.143.094c-1.676.34-3.457 1.388-5.29 3.117c-.97.917-1.782 1.571-1.782 1.414s.104-.367.262-.445c.419-.262 2.698-3.56 2.54-3.692c-.209-.236-3.902 1.57-5.605 2.723c-1.99 1.362-4.19 3.746-4.95 5.422c-.34.707-.575 1.336-.523 1.389c.053.026.89-.525 1.86-1.258c.969-.734 1.833-1.257 1.912-1.178s-.42.732-1.127 1.44c-.707.733-1.206 1.31-1.127 1.31s1.152-.42 2.357-.943l2.174-.916l.395.601c1.283 1.991 3.325 2.882 6.547 2.803c1.729-.026 2.096.028 2.986.656c.55.367 1.153.68 1.336.68s.393.183.498.393c.079.21.418.394.733.394c.524-.026.55-.053.158-.289c-.262-.13-.473-.394-.473-.55c0-.158.21-.444.473-.628c.419-.314.419-.34 0-.367c-.236 0-.525.105-.604.262c-.288.471-1.1.261-1.545-.367c-.393-.629-.393-.655.577-.97l.968-.314l-1.832-.89c-.995-.472-2.044-.865-2.306-.865c-.42 0-.47-.13-.313-.864c.603-2.829 3.325-4.794 8.46-6.103C23.133 8.02 24 7.733 24 7.628c0-.288-4.166-1.23-6.026-1.361a15 15 0 0 0-1.476-.043m-12.354 5.36c.157 0 .159.156-.05.392c-.184.236-.394.341-.446.29c-.183-.184.182-.683.496-.683zm13.07 6.023a.54.54 0 0 0-.417.264c-.079.13-.054.261.103.261c.131 0 .342-.13.42-.261c.079-.157.052-.264-.105-.264zm-2.827.787c-.577 0-.628.052-.34.393c.183.21.628.392.968.392c.577 0 .628-.052.34-.392c-.183-.21-.628-.393-.968-.393"/></svg>