<?xml version="1.0" encoding="UTF-8"?>
<svg id="a" data-name="Слой 1" xmlns="http://www.w3.org/2000/svg" viewBox="0 0 304 373.38">
  <g>
    <path d="m288,.69H58.5C26.24.69,0,26.93,0,59.19v255c0,32.26,26.24,58.5,58.5,58.5h229.5c8.84,0,16-7.16,16-16V16.69c0-8.84-7.16-16-16-16Zm-16,340H58.5c-14.61,0-26.5-11.89-26.5-26.5s11.89-26.5,26.5-26.5h213.5v53Zm0-85h-40.31c-3.69-40.78-37.95-72.74-79.69-72.74s-76,31.96-79.69,72.74h-13.81c-9.53,0-18.54,2.29-26.5,6.35V59.19c0-14.61,11.89-26.5,26.5-26.5h213.5v223Z" fill="#14141e"/>
    <circle cx="152" cy="121.57" r="51.06" fill="#14141e"/>
  </g>
  <path d="m179.28,117.83l-40.85-23.59c-2.88-1.66-6.48.42-6.48,3.74v47.17c0,3.33,3.6,5.41,6.48,3.74l40.85-23.59c2.88-1.66,2.88-5.82,0-7.49Z" fill="#ff0064"/>
</svg>